<mxfile host="65bd71144e" scale="3" border="0">
    <diagram name="第 1 页" id="5Mz-5gHevJy38CjiKfkV">
        <mxGraphModel dx="684" dy="498" grid="0" gridSize="10" guides="1" tooltips="1" connect="1" arrows="1" fold="1" page="1" pageScale="1" pageWidth="827" pageHeight="1169" math="0" shadow="0">
            <root>
                <mxCell id="0"/>
                <mxCell id="1" parent="0"/>
                <mxCell id="SZ9UxD97yWCDi9Ao0AzI-1" value="" style="html=1;whiteSpace=wrap;shape=isoCube2;backgroundOutline=1;isoAngle=15;fillColor=#f5f5f5;fontColor=#333333;strokeColor=#666666;strokeWidth=2;" parent="1" vertex="1">
                    <mxGeometry x="280" y="140" width="250" height="280" as="geometry"/>
                </mxCell>
                <mxCell id="SZ9UxD97yWCDi9Ao0AzI-2" value="" style="shape=parallelogram;perimeter=parallelogramPerimeter;whiteSpace=wrap;html=1;fixedSize=1;rotation=90;size=6.633513513513407;strokeColor=none;fillStyle=hachure;fillColor=#000000;sketch=1;curveFitting=1;jiggle=0;fillWeight=-1;hachureAngle=30;" parent="1" vertex="1">
                    <mxGeometry x="191.17" y="271.17" width="166.13" height="11.55" as="geometry"/>
                </mxCell>
                <mxCell id="SZ9UxD97yWCDi9Ao0AzI-4" value="" style="shape=parallelogram;perimeter=parallelogramPerimeter;whiteSpace=wrap;html=1;fixedSize=1;rotation=154;size=8.539398468983222;strokeColor=none;fillStyle=hachure;fillColor=#000000;sketch=1;curveFitting=1;jiggle=0;fillWeight=-1;flipH=1;hachureAngle=30;strokeWidth=1;" parent="1" vertex="1">
                    <mxGeometry x="263.22" y="160.8" width="146.94" height="11.55" as="geometry"/>
                </mxCell>
                <mxCell id="2" value="" style="endArrow=none;html=1;strokeWidth=3;" edge="1" parent="1">
                    <mxGeometry width="50" height="50" relative="1" as="geometry">
                        <mxPoint x="280" y="359" as="sourcePoint"/>
                        <mxPoint x="280" y="201" as="targetPoint"/>
                    </mxGeometry>
                </mxCell>
                <mxCell id="3" value="" style="endArrow=none;html=1;exitX=0;exitY=0;exitDx=0;exitDy=0;strokeWidth=3;" edge="1" parent="1" source="SZ9UxD97yWCDi9Ao0AzI-2">
                    <mxGeometry width="50" height="50" relative="1" as="geometry">
                        <mxPoint x="184" y="245" as="sourcePoint"/>
                        <mxPoint x="404" y="140" as="targetPoint"/>
                    </mxGeometry>
                </mxCell>
            </root>
        </mxGraphModel>
    </diagram>
</mxfile>